<svg width="37" height="37" viewBox="0 0 37 37" fill="none" xmlns="http://www.w3.org/2000/svg">
    <path d="M18.2 36.4C28.2516 36.4 36.4 28.2516 36.4 18.2C36.4 8.14841 28.2516 0 18.2 0C8.14842 0 0 8.14841 0 18.2C0 28.2516 8.14842 36.4 18.2 36.4Z" fill="#E8EFFB"/>
    <path d="M12.3 18.2C12.3 17.9 12.4 17.6 12.7 17.3L20.2 9.79999C20.7 9.29999 21.5 9.29999 21.9 9.79999C22.4 10.3 22.4 11.1 21.9 11.5L15.3 18.1L21.9 24.7C22.4 25.2 22.4 26 21.9 26.4C21.4 26.9 20.6 26.9 20.2 26.4L12.7 18.9C12.4 18.9 12.3 18.5 12.3 18.2Z" fill="#8230FA"/>
</svg>
