<svg width="40" height="40" viewBox="0 0 40 40" fill="none" xmlns="http://www.w3.org/2000/svg">
    <path d="M37.8985 21.4208C38.8085 11.4105 31.4312 2.55775 21.4208 1.64773C11.4105 0.737712 2.55775 8.115 1.64773 18.1254C0.737714 28.1357 8.115 36.9885 18.1254 37.8985C28.1357 38.8085 36.9885 31.4312 37.8985 21.4208Z" fill="#E8EFFB"/>
    <path d="M25.3632 20.6687L17.8632 28.1687C17.3632 28.6687 16.5631 28.6687 16.1631 28.1687C15.6631 27.6687 15.6631 26.8687 16.1631 26.4687L22.7631 19.8687L16.1631 13.2687C15.6631 12.7687 15.6631 11.9687 16.1631 11.5687C16.6631 11.0687 17.4632 11.0687 17.8632 11.5687L25.3632 19.0687C25.5632 19.2687 25.7631 19.6687 25.7631 19.9687C25.7631 20.0687 25.6632 20.4687 25.3632 20.6687Z" fill="#8230FA"/>
</svg>
