<svg width="39" height="39" viewBox="0 0 39 39" fill="none" xmlns="http://www.w3.org/2000/svg">
    <path d="M19.1 37.7C29.1516 37.7 37.3 29.5516 37.3 19.5C37.3 9.44841 29.1516 1.29999 19.1 1.29999C9.04841 1.29999 0.899994 9.44841 0.899994 19.5C0.899994 29.5516 9.04841 37.7 19.1 37.7Z"
          stroke="#8230FA" stroke-width="1.5" stroke-miterlimit="10"/>
    <path d="M29.1 19.1C28.9 18.9 24.6 13 19.1 13C13.6 13 9.20001 18.8 9.10001 19.1C8.90001 19.3 8.90001 19.7 9.10001 19.9C9.30001 20.1 13.6 26 19.1 26C24.6 26 29 20.2 29.1 19.9C29.3 19.7 29.3 19.4 29.1 19.1ZM19.1 24.7C15 24.7 11.5 20.8 10.5 19.6C11.5 18.3 15.1 14.5 19.1 14.5C23.2 14.5 26.7 18.4 27.7 19.6C26.7 20.8 23.1 24.7 19.1 24.7Z"
          fill="#8230FA"/>
    <path d="M19.1 15.5C16.9 15.5 15.1 17.3 15.1 19.5C15.1 21.7 16.9 23.5 19.1 23.5C21.3 23.5 23.1 21.7 23.1 19.5C23.1 17.3 21.3 15.5 19.1 15.5ZM19.1 22.2C17.6 22.2 16.4 21 16.4 19.5C16.4 18 17.6 16.8 19.1 16.8C20.6 16.8 21.8 18 21.8 19.5C21.8 21 20.5 22.2 19.1 22.2Z"
          fill="#8230FA"/>
</svg>
