<svg class="options__icon" width="38" height="38" viewBox="0 0 38 38" fill="none" xmlns="http://www.w3.org/2000/svg">
    <path d="M19.2 37.4C29.2516 37.4 37.4 29.2516 37.4 19.2C37.4 9.14842 29.2516 1 19.2 1C9.14842 1 1 9.14842 1 19.2C1 29.2516 9.14842 37.4 19.2 37.4Z" stroke="#6807F8" stroke-miterlimit="10"/>
    <path d="M29.2 18.8C29 18.6 24.7 12.7 19.2 12.7C13.7 12.7 9.3 18.5 9.2 18.8C9 19 9 19.4 9.2 19.6C9.4 19.8 13.7 25.7 19.2 25.7C24.7 25.7 29.1 19.9 29.2 19.6C29.4 19.4 29.4 19.1 29.2 18.8ZM19.2 24.4C15.1 24.4 11.6 20.5 10.6 19.3C11.6 18 15.2 14.2 19.2 14.2C23.3 14.2 26.8 18.1 27.8 19.3C26.8 20.5 23.2 24.4 19.2 24.4Z" fill="#6807F8"/>
    <path d="M19.2 15.2C17 15.2 15.2 17 15.2 19.2C15.2 21.4 17 23.2 19.2 23.2C21.4 23.2 23.2 21.4 23.2 19.2C23.2 17 21.4 15.2 19.2 15.2ZM19.2 21.9C17.7 21.9 16.5 20.7 16.5 19.2C16.5 17.7 17.7 16.5 19.2 16.5C20.7 16.5 21.9 17.7 21.9 19.2C21.9 20.7 20.6 21.9 19.2 21.9Z" fill="#6807F8"/>
</svg>
