<svg width="39" height="38" viewBox="0 0 39 38" fill="none" xmlns="http://www.w3.org/2000/svg">
    <path d="M19.5 37.2C29.5516 37.2 37.7 29.0516 37.7 19C37.7 8.94841 29.5516 0.799988 19.5 0.799988C9.4484 0.799988 1.29999 8.94841 1.29999 19C1.29999 29.0516 9.4484 37.2 19.5 37.2Z" stroke="#8230FA" stroke-width="1.5" stroke-miterlimit="10"/>
    <path d="M19.5 8.5C14.9 8.5 11.1 12.3 11.1 16.9C11.1 17.4 11.1 18 11.2 18.5C11.2 18.5 11.2 18.6 11.3 18.8C11.4 19.4 11.6 19.9 11.9 20.5C12.8 22.6 14.8 25.9 19.2 29.4C19.3 29.5 19.4 29.5 19.6 29.5C19.7 29.5 19.9 29.5 20 29.4C24.4 25.9 26.4 22.6 27.3 20.5C27.5 20 27.7 19.4 27.9 18.8C27.9 18.6 28 18.5 28 18.5C28.1 18 28.1 17.5 28.1 16.9C27.9 12.3 24.1 8.5 19.5 8.5ZM26.6 18.3C26.6 18.3 26.6 18.4 26.6 18.5C26.5 19 26.3 19.5 26.1 19.9C25.3 21.8 23.5 24.8 19.6 28C15.7 24.8 13.9 21.8 13.1 19.9C12.9 19.4 12.7 19 12.6 18.5C12.6 18.4 12.6 18.3 12.6 18.3C12.5 17.8 12.5 17.4 12.5 16.9C12.5 12.9 15.7 9.7 19.7 9.7C23.7 9.7 26.9 12.9 26.9 16.9C26.7 17.4 26.7 17.8 26.6 18.3Z" fill="#8230FA"/>
    <path d="M19.5 11.7C16.6 11.7 14.2 14.1 14.2 17C14.2 19.9 16.6 22.3 19.5 22.3C22.4 22.3 24.8 19.9 24.8 17C24.8 14.1 22.4 11.7 19.5 11.7ZM19.5 21.1C17.2 21.1 15.4 19.2 15.4 17C15.4 14.8 17.3 12.9 19.5 12.9C21.8 12.9 23.6 14.8 23.6 17C23.6 19.2 21.8 21.1 19.5 21.1Z" fill="#8230FA"/>
</svg>
