<svg class="options__icon" width="38" height="38" viewBox="0 0 38 38" fill="none" xmlns="http://www.w3.org/2000/svg">
    <path d="M19.2 37.4C29.2516 37.4 37.4 29.2516 37.4 19.2C37.4 9.14842 29.2516 1 19.2 1C9.14841 1 1 9.14842 1 19.2C1 29.2516 9.14841 37.4 19.2 37.4Z" stroke="#8097A1" stroke-miterlimit="10"/>
    <path d="M19.2 8.7C14.6 8.7 10.8 12.5 10.8 17.1C10.8 17.6 10.8 18.2 10.9 18.7C10.9 18.7 10.9 18.8 11 19C11.1 19.6 11.3 20.1 11.6 20.7C12.5 22.8 14.5 26.1 18.9 29.6C19 29.7 19.1 29.7 19.3 29.7C19.4 29.7 19.6 29.7 19.7 29.6C24.1 26.1 26.1 22.8 27 20.7C27.2 20.2 27.4 19.6 27.6 19C27.6 18.8 27.7 18.7 27.7 18.7C27.8 18.2 27.8 17.7 27.8 17.1C27.6 12.5 23.8 8.7 19.2 8.7ZM26.3 18.5C26.3 18.5 26.3 18.6 26.3 18.7C26.2 19.2 26 19.7 25.8 20.1C25 22 23.2 25 19.3 28.2C15.4 25 13.6 22 12.8 20.1C12.6 19.6 12.4 19.2 12.3 18.7C12.3 18.6 12.3 18.5 12.3 18.5C12.2 18 12.2 17.6 12.2 17.1C12.2 13.1 15.4 9.9 19.4 9.9C23.4 9.9 26.6 13.1 26.6 17.1C26.4 17.6 26.4 18 26.3 18.5Z" fill="#8097A1"/>
    <path d="M19.2 11.9C16.3 11.9 13.9 14.3 13.9 17.2C13.9 20.1 16.3 22.5 19.2 22.5C22.1 22.5 24.5 20.1 24.5 17.2C24.5 14.3 22.1 11.9 19.2 11.9ZM19.2 21.3C16.9 21.3 15.1 19.4 15.1 17.2C15.1 15 17 13.1 19.2 13.1C21.5 13.1 23.3 15 23.3 17.2C23.3 19.4 21.5 21.3 19.2 21.3Z" fill="#8097A1"/>
</svg>
