<svg width="39" height="39" viewBox="0 0 39 39" fill="none" xmlns="http://www.w3.org/2000/svg">
    <path d="M23.6 21.3C23.4 21.2 23.2 21.2 23 21.3C22.2 22.2 21 22.7 19.8 22.7C18.6 22.7 17.4 22.2 16.6 21.3C16.5 21.1 16.2 21.1 16 21.3C15.8 21.4 15.8 21.7 16 21.9C17 23 18.4 23.6 19.8 23.6C21.3 23.6 22.6 23 23.6 21.9C23.7 21.7 23.7 21.4 23.6 21.3Z" fill="#8230FA" stroke="#8230FA" stroke-width="0.5" stroke-miterlimit="10"/>
    <path d="M19.8 10.2C14.8 10.2 10.8 14.2 10.8 19.2C10.8 24.2 14.8 28.2 19.8 28.2C24.8 28.2 28.8 24.2 28.8 19.2C28.8 14.2 24.7 10.2 19.8 10.2ZM19.8 27.5C15.3 27.5 11.6 23.8 11.6 19.3C11.6 14.8 15.3 11.1 19.8 11.1C24.3 11.1 28 14.8 28 19.3C28 23.8 24.3 27.5 19.8 27.5Z" fill="#8230FA" stroke="#8230FA" stroke-width="0.5" stroke-miterlimit="10"/>
    <path d="M22.9 16.5C21.8 16.5 20.9 17.4 20.9 18.5C20.9 18.7 21.1 18.9 21.3 18.9C21.5 18.9 21.7 18.7 21.7 18.5C21.7 17.9 22.2 17.3 22.9 17.3C23.6 17.3 24.1 17.8 24.1 18.5C24.1 18.7 24.3 18.9 24.5 18.9C24.7 18.9 24.9 18.7 24.9 18.5C24.9 17.4 24 16.5 22.9 16.5Z" fill="#8230FA" stroke="#8230FA" stroke-width="0.5" stroke-miterlimit="10"/>
    <path d="M17.8 18.5C17.8 18.7 18 18.9 18.2 18.9C18.4 18.9 18.6 18.7 18.6 18.5C18.6 17.4 17.7 16.5 16.6 16.5C15.5 16.5 14.6 17.4 14.6 18.5C14.6 18.7 14.8 18.9 15 18.9C15.2 18.9 15.4 18.7 15.4 18.5C15.4 17.9 15.9 17.3 16.6 17.3C17.3 17.3 17.8 17.8 17.8 18.5Z" fill="#8230FA" stroke="#8230FA" stroke-width="0.5" stroke-miterlimit="10"/>
    <path d="M19.8 37.4C29.8516 37.4 38 29.2516 38 19.2C38 9.14842 29.8516 1 19.8 1C9.74843 1 1.60001 9.14842 1.60001 19.2C1.60001 29.2516 9.74843 37.4 19.8 37.4Z" stroke="#8230FA" stroke-width="1.5" stroke-miterlimit="10"/>
</svg>
