<svg class="options__icon"  width="38" height="38" viewBox="0 0 38 38" fill="none" xmlns="http://www.w3.org/2000/svg">
    <path d="M23 21.3C22.8 21.2 22.6 21.2 22.4 21.3C21.6 22.2 20.4 22.7 19.2 22.7C18 22.7 16.8 22.2 16 21.3C15.9 21.1 15.6 21.1 15.4 21.3C15.2 21.4 15.2 21.7 15.4 21.9C16.4 23 17.8 23.6 19.2 23.6C20.7 23.6 22 23 23 21.9C23.1 21.7 23.1 21.4 23 21.3Z" fill="#6807F8" stroke="#6807F8" stroke-width="0.5" stroke-miterlimit="10"/>
    <path d="M19.2 10.2C14.2 10.2 10.2 14.2 10.2 19.2C10.2 24.2 14.2 28.2 19.2 28.2C24.2 28.2 28.2 24.2 28.2 19.2C28.2 14.2 24.1 10.2 19.2 10.2ZM19.2 27.5C14.7 27.5 11 23.8 11 19.3C11 14.8 14.7 11.1 19.2 11.1C23.7 11.1 27.4 14.8 27.4 19.3C27.4 23.8 23.7 27.5 19.2 27.5Z" fill="#6807F8" stroke="#6807F8" stroke-width="0.5" stroke-miterlimit="10"/>
    <path d="M22.3 16.5C21.2 16.5 20.3 17.4 20.3 18.5C20.3 18.7 20.5 18.9 20.7 18.9C20.9 18.9 21.1 18.7 21.1 18.5C21.1 17.9 21.6 17.3 22.3 17.3C23 17.3 23.5 17.8 23.5 18.5C23.5 18.7 23.7 18.9 23.9 18.9C24.1 18.9 24.3 18.7 24.3 18.5C24.3 17.4 23.4 16.5 22.3 16.5Z" fill="#6807F8" stroke="#6807F8" stroke-width="0.5" stroke-miterlimit="10"/>
    <path d="M17.2 18.5C17.2 18.7 17.4 18.9 17.6 18.9C17.8 18.9 18 18.7 18 18.5C18 17.4 17.1 16.5 16 16.5C14.9 16.5 14 17.4 14 18.5C14 18.7 14.2 18.9 14.4 18.9C14.6 18.9 14.8 18.7 14.8 18.5C14.8 17.9 15.3 17.3 16 17.3C16.7 17.3 17.2 17.8 17.2 18.5Z" fill="#6807F8" stroke="#6807F8" stroke-width="0.5" stroke-miterlimit="10"/>
    <path d="M19.2 37.4C29.2516 37.4 37.4 29.2516 37.4 19.2C37.4 9.14842 29.2516 1 19.2 1C9.14842 1 1 9.14842 1 19.2C1 29.2516 9.14842 37.4 19.2 37.4Z" stroke="#6807F8" stroke-miterlimit="10"/>
</svg>
