<svg width="111" height="30" viewBox="0 0 111 30" fill="none" xmlns="http://www.w3.org/2000/svg">
<path opacity="0.2" d="M14.9 29.8C23.129 29.8 29.8 23.1291 29.8 14.9C29.8 6.67098 23.129 0 14.9 0C6.67095 0 0 6.67098 0 14.9C0 23.1291 6.67095 29.8 14.9 29.8Z" fill="#976AF9"/>
<path d="M14.9 27.1C21.6379 27.1 27.1 21.6379 27.1 14.9C27.1 8.16215 21.6379 2.70001 14.9 2.70001C8.16212 2.70001 2.69998 8.16215 2.69998 14.9C2.69998 21.6379 8.16212 27.1 14.9 27.1Z" fill="#976AF9"/>
<path opacity="0.2" d="M96.1 29.8C104.329 29.8 111 23.1291 111 14.9C111 6.67098 104.329 0 96.1 0C87.8709 0 81.2 6.67098 81.2 14.9C81.2 23.1291 87.8709 29.8 96.1 29.8Z" fill="#976AF9"/>
<path d="M96.1 27.1C102.838 27.1 108.3 21.6379 108.3 14.9C108.3 8.16215 102.838 2.70001 96.1 2.70001C89.3621 2.70001 83.9 8.16215 83.9 14.9C83.9 21.6379 89.3621 27.1 96.1 27.1Z" fill="#976AF9"/>
</svg>
