<svg width="342" height="285" viewBox="0 0 342 285" fill="none" xmlns="http://www.w3.org/2000/svg">
<path d="M2.19995 4C2.19995 4 242.4 43.2 338.3 2C335.8 63.3 331.7 216.4 331.7 216.4C331.7 216.4 170.3 369.2 11.7 216.4C5.29995 110.3 2.19995 4 2.19995 4Z" fill="white"/>
<path d="M338.6 1.60001C311.9 10.4 284 15.3 256 18.1C228 20.9 199.7 21.4 171.5 20.6C143.3 19.8 115.1 17.5 87.1 14.2C73.1 12.5 59.1 10.6 45.1 8.39999C31.2 6.19999 17.2 3.69999 3.49997 0.799988L0.599976 0.200012L0.799957 3.10001L3.29996 50.5L5.89996 97.9C6.79996 113.7 7.79998 129.5 8.69998 145.3L10.1 169L11.6 215.6L11 168.9L10.3 145.2C9.79996 129.4 9.39996 113.6 8.79996 97.7L7.09998 50.3L5.39996 5.79999C18.4 8.59999 31.3 11 44.4 13.2C58.4 15.5 72.4 17.6 86.5 19.3C114.7 22.7 143 25.1 171.4 26C199.8 26.8 228.2 26.2 256.5 23.3C270.6 21.9 284.7 19.8 298.7 17C305.7 15.6 312.6 14 319.5 12.2C325.3 10.6 331.1 8.9 336.9 7L334.5 98.3L333.2 145.6L332.4 169.2C332.1 177.1 331.9 207.9 331.5 215.8C332.9 200.1 333.8 161.4 334.8 145.7C335.7 130 336.6 114.2 337.4 98.5C338.1 82.8 338.9 67 339.6 51.3L341.5 4.10001L341.6 0.799988L338.6 1.60001Z" fill="#CAD6EF"/>
<path d="M17.1 216.5L11 15.6C11 15.6 181.7 60.6 329.5 15.6C329 129.1 325.4 216.5 325.4 216.5" stroke="#BACFE2" stroke-width="2" stroke-miterlimit="10" stroke-linecap="round" stroke-dasharray="6 6"/>
</svg>
