<svg width="354" height="379" viewBox="0 0 354 379" fill="none" xmlns="http://www.w3.org/2000/svg">
<path d="M340 282.8L336.3 278.7L334.8 280.7L334.7 271.2H336L335.7 269.1L334.4 268.4L334.7 265H332.6V266.5L330.8 265.6C330 247.7 313 238.9 313 238.9C313 238.9 311.8 227 312.9 226.7C313 226.7 313 226.7 313.1 226.6C314 226.2 313.6 224.8 313.6 224.8C313.2 219.2 307.6 216.8 307.6 216.8C302.2 221.2 302.6 225.6 302.5 225.9C302.4 226.2 303.3 226.9 303.3 226.9V239.7C303.3 239.7 302.4 240.6 297.1 243.5C291.8 246.4 287 255.3 287 255.3C287 255.3 287 250.1 287.1 249.4C287.2 248.7 289.4 246.3 289.8 244C290.2 241.7 287.6 238.5 287.4 237.9C287.2 237.3 287.9 237.6 288.5 237C289.1 236.4 285.8 235.8 285.8 235.8C285.8 235.8 286.1 226.6 285.8 224.8C285.5 223 281.6 220.5 281.6 220.5C278.9 195.4 257 186.9 254.4 184.9C251.8 182.9 251 180.6 250.4 179.1C249.8 177.7 250.4 176.2 250.4 174.8C250.4 173.4 249.2 172.9 249.2 172.9C249.2 172.9 249.6 160.6 249.2 156.5C248.9 153.2 244.8 149.3 243.3 148V143.4H245.2V142.6H243.3V141.1H242.2V142.6H240.3V143.4H242.2V148C240.7 149.3 236.6 153.2 236.3 156.5C235.9 160.6 236.3 172.9 236.3 172.9C236.3 172.9 235.1 173.4 235.1 174.8C235.1 176.2 235.7 177.6 235.1 179.1C234.5 180.5 233.7 182.9 231.1 184.9C228.5 186.9 206.6 195.4 203.9 220.5C203.9 220.5 200 223 199.7 224.8C199.4 226.6 199.7 235.8 199.7 235.8C199.7 235.8 196.4 236.5 197 237C197.6 237.6 198.3 237.3 198.1 237.9C197.9 238.5 195.3 241.7 195.7 244C196.1 246.3 198.3 248.7 198.4 249.4C198.5 250.1 198.5 255.3 198.5 255.3C198.5 255.3 193.7 246.4 188.4 243.5C183.1 240.6 182.2 239.7 182.2 239.7V226.9C182.2 226.9 183.1 226.2 183 225.9C182.9 225.6 183.3 221.2 177.9 216.8C177.9 216.8 172.2 219.3 171.9 224.8C171.9 224.8 171.5 226.2 172.4 226.6C172.4 226.6 172.5 226.6 172.6 226.7C173.7 227 172.5 238.9 172.5 238.9C172.5 238.9 155.5 247.7 154.7 265.6L152.9 266.5V265H150.8L151.1 268.4L149.8 269.1L149.5 271.2H150.8L150.7 280.7L149.2 278.7L145.5 282.8L131.6 283V289.7H133.4V377L242.8 376.6L352.2 378.1V289.7H354V283L340 282.8Z" fill="#EBF4FF"/>
<path d="M121.3 249.6H125.9V241H118.4C111.6 220.1 106.1 198.5 101.7 177.5H105.6V169.3H100.1C88.2 108.9 85.1 55 84.4 38.2H86.8V21.5H88.4V17.2H83.9C81.2 13.1 80.4 0 80.4 0C80.4 0 79.6 13.1 76.9 17.2H72.4V21.5H74.3V38.2H77C76.3 55 73 108.9 60.9 169.2H53.8V177.4H59.3C54.9 198.3 49.3 219.9 42.4 240.8H34.9V249.4H39.5C29.3 278.5 16.4 306 0 328.4H16.1H19.6H26.9C26.9 328.4 27 327.8 27.3 326.8C27.2 327.4 27.1 327.9 27 328.5H34C34 328.5 43.8 281.7 80.7 281.3C117.6 281.9 139.9 356.2 139.9 356.2L173.2 354C156.9 331.5 131.5 278.7 121.3 249.6ZM73.1 200.3H87.9C87.9 200.3 91.7 226.6 95.5 240.9L65.5 240.8C69.3 226.6 73.1 200.3 73.1 200.3Z" fill="#EBF4FF"/>
</svg>
