<svg width="395" height="115" viewBox="0 0 395 115" fill="none" xmlns="http://www.w3.org/2000/svg">
<path d="M351.2 109C351.2 109 309.4 76.3999 324.3 62.9999C339.2 49.6999 351.2 109 351.2 109Z" fill="#E1EAFF"/>
<path d="M351.2 109C351.2 109 327.1 22.3 352.6 22.5C378 22.7 351.2 109 351.2 109Z" fill="#E1EAFF"/>
<path d="M351.2 109C351.2 109 365.7 39.4 381 47.7C396.3 56 351.2 109 351.2 109Z" fill="#E1EAFF"/>
<path d="M351.2 109C351.2 109 383.4 64.7999 393.4 71.7999C403.4 78.7999 363.7 104.2 351.2 109Z" fill="#E1EAFF"/>
<path d="M351.2 109C353.9 106.2 356.7 103.6 359.5 101C362.3 98.3999 365.2 95.9 368.1 93.4C371 90.9 373.9 88.4999 376.9 86.0999L381.4 82.5999C382.9 81.4999 384.5 80.3 386 79.2C384.7 80.6 383.3 81.8999 381.9 83.2999L377.7 87.2C374.9 89.8 372 92.2999 369.1 94.7999C366.2 97.2999 363.3 99.6999 360.3 102.1C357.3 104.4 354.3 106.8 351.2 109Z" fill="white"/>
<path d="M351.2 109C352.7 105 354.4 99.8 356.1 96C357.8 92.1 359.6 88.3 361.4 84.5C363.2 80.7 365.1 76.9 367.1 73.2L370.1 67.6C371.1 65.8 372.1 63.9 373.2 62.1C372.5 64.1 371.6 66 370.9 68L368.4 73.8C366.7 77.7 364.9 81.5 363.1 85.3C361.3 89.1 359.4 92.9 357.4 96.6C355.3 100.3 353.3 105.4 351.2 109Z" fill="white"/>
<path d="M351.2 47C351.6 51.9 351.7 56.7 351.9 61.6C352.1 66.5 352.1 71.3 352.1 76.2C352.1 81.1 352.1 85.9 351.9 90.8L351.7 98.1C351.6 100.5 351.5 106.6 351.3 109.1C351.1 106.7 351 100.6 350.9 98.1L350.7 90.8C350.5 85.9 350.5 81.1 350.5 76.2C350.5 71.3 350.5 66.5 350.7 61.6C350.6 56.7 350.8 51.9 351.2 47Z" fill="white"/>
<path d="M327.8 71.1C331.9 76.4 335.6 82.1 339.2 87.8C342.7 93.5 348.2 103 351.2 109.1C347 103.8 341.3 94.5 337.7 88.8C334.2 82.9 330.7 77.1 327.8 71.1Z" fill="white"/>
<path d="M70.4 113.4C70.4 113.4 79.9 91.5 94 93.2C108.2 94.9 107.3 81.2 118.1 84.2C128.8 87.2 128 77.3 135.7 83.8C143.4 90.3 155 96 155 96L168.3 113L70.4 113.4Z" fill="#E1EAFF"/>
<path d="M3.99996 113.4C3.99996 113.4 -6.30003 95.9 11.2 82C11.2 82 0.89996 56.8 22.5 48.3C32.6 44.4 9.19997 14.7 38.2 14.1C68.5 13.5 54.4 37.7 52.5 46C50.6 54.3 80.9 60.6 64 83.1C63.3 91.5 83 91.1 70.4 113.3C23.2 114.8 3.99996 113.4 3.99996 113.4Z" fill="#E6EDFF"/>
<path d="M39 31.6H36.5V113.4H39V31.6Z" fill="white"/>
<path d="M45.0639 50.8775L36.914 58.8495L38.6623 60.6367L46.8121 52.6647L45.0639 50.8775Z" fill="white"/>
<path d="M23.6919 63.0776L21.7057 64.5958L36.7667 84.2994L38.753 82.7812L23.6919 63.0776Z" fill="white"/>
<path d="M48.1449 87.8592L36.8583 98.6279L38.584 100.437L49.8706 89.6679L48.1449 87.8592Z" fill="white"/>
<path d="M124.4 113C124.4 113 142.4 104 148.9 104C155.3 104 157.6 87.2 175 92.7C192.4 98.2 225.3 89.5 229.1 84.3C233 79.1 246.8 77.9 253.3 84.3C259.7 90.7 270.4 87.5 276.5 91.1C282.6 94.6 325.8 89 335.2 96.5C344.5 104 350.3 108.8 356.1 109.2C361.9 109.5 383.6 114.2 383.6 114.2L124.4 113Z" fill="#E1EAFF"/>
<path d="M77 114.1C77 114.1 35.2 81.5 50.1 68.1C65 54.8 77 114.1 77 114.1Z" fill="#D0DAEF"/>
<path d="M76.9999 114.1C76.9999 114.1 52.8999 27.4 78.3999 27.6C103.9 27.8 76.9999 114.1 76.9999 114.1Z" fill="#D0DAEF"/>
<path d="M77 114.1C77 114.1 91.5 44.5 106.8 52.8C122.1 61.1 77 114.1 77 114.1Z" fill="#D0DAEF"/>
<path d="M77 114.1C77 114.1 109.2 69.9 119.2 76.9C129.1 83.8 89.5 109.3 77 114.1Z" fill="#D0DAEF"/>
<path d="M77 114.1C79.7 111.3 82.5 108.7 85.3 106.1C88.1 103.5 91 101 93.9 98.5C96.8 96 99.7 93.6 102.7 91.2L107.2 87.7C108.7 86.6 110.3 85.4 111.8 84.3C110.5 85.7 109.1 87 107.7 88.4L103.5 92.3C100.7 94.9 97.8 97.4 94.9 99.9C92 102.4 89.1 104.8 86.1 107.2C83.1 109.5 80.1 111.9 77 114.1Z" fill="white"/>
<path d="M77 114.1C78.5 110.1 80.2 104.9 81.9 101.1C83.6 97.2 85.4 93.4 87.2 89.6C89 85.8 90.9 82 92.9 78.3L95.9 72.7C96.9 70.9 97.9 69 99 67.2C98.3 69.2 97.4 71.1 96.7 73.1L94.2 78.9C92.5 82.8 90.7 86.6 88.9 90.4C87.1 94.2 85.2 98 83.2 101.7C81.1 105.4 79.1 110.4 77 114.1Z" fill="white"/>
<path d="M76.9999 52.1C77.3999 57 77.5 61.8 77.7 66.7C77.9 71.6 77.8999 76.4 77.8999 81.3C77.8999 86.2 77.9 91 77.7 95.9L77.4999 103.2C77.3999 105.6 77.2999 111.7 77.0999 114.2C76.8999 111.8 76.8 105.7 76.7 103.2L76.4999 95.9C76.2999 91 76.2999 86.2 76.2999 81.3C76.2999 76.4 76.2999 71.6 76.4999 66.7C76.3999 61.8 76.5999 57 76.9999 52.1Z" fill="white"/>
<path d="M53.6 76.1C57.7 81.4 61.4 87.1 65 92.8C68.5 98.5 74 108 77 114.1C72.8 108.8 67.1 99.5 63.5 93.8C60 88 56.5 82.2 53.6 76.1Z" fill="white"/>
<path d="M170.2 112.6C170.2 112.6 163.4 101.1 175 91.9C175 91.9 168.2 75.3 182.4 69.7C189 67.1 173.6 47.5 192.7 47.2C212.6 46.8 203.3 62.8 202.1 68.2C200.9 73.6 220.8 77.8 209.7 92.6C209.2 98.1 222.2 97.9 213.9 112.5C182.4 112.6 170.2 112.6 170.2 112.6Z" fill="#D0DAEF"/>
<path d="M192.7 58.2999H191V112.2H192.7V58.2999Z" fill="white"/>
<path d="M196.706 70.968L191.344 76.2128L192.533 77.4281L197.895 72.1833L196.706 70.968Z" fill="white"/>
<path d="M182.586 79.0663L181.235 80.0987L191.195 93.1285L192.545 92.096L182.586 79.0663Z" fill="white"/>
<path d="M198.69 95.3687L191.238 102.479L192.411 103.709L199.864 96.5986L198.69 95.3687Z" fill="white"/>
<path d="M203.8 112.6C203.8 112.6 192.2 92.9 211.9 77.3C211.9 77.3 200.4 48.9 224.6 39.4C235.9 35 209.6 1.5 242.3 0.899996C276.4 0.199996 260.5 27.5 258.4 36.8C256.3 46.1 290.4 53.3 271.3 78.5C270.5 87.9 292.7 87.5 278.5 112.5C224.6 112.6 203.8 112.6 203.8 112.6Z" fill="#D9E7F4"/>
<path d="M242.1 19.8H239.3V111.9H242.1V19.8Z" fill="white"/>
<path d="M248.905 41.443L239.755 50.394L241.713 52.3958L250.863 43.4447L248.905 41.443Z" fill="white"/>
<path d="M224.869 55.3437L222.645 57.0441L239.649 79.2901L241.874 77.5897L224.869 55.3437Z" fill="white"/>
<path d="M252.375 83.184L239.714 95.2642L241.646 97.29L254.308 85.2098L252.375 83.184Z" fill="white"/>
</svg>
