<svg width="615" height="186" viewBox="0 0 615 186" fill="none" xmlns="http://www.w3.org/2000/svg">
<path d="M336.9 145.3C336.9 145.3 356.1 155.8 360.2 145.1C361.1 142.8 364.9 137.5 355.2 134C362 131.1 374.7 140.6 370.5 128.5C367.4 119.6 359.3 125 359.8 120.1C360.6 112.2 380.7 122.8 379.8 114C378.8 103.9 367.8 111.3 374.1 101.5C378.8 94.2 383.3 94.4 382.2 90.4C381.4 87.6 378.9 85.3 376 85.1C368.3 84.6 363.6 92.4 359.8 92.9C355.3 93.5 345.5 84.3 346.2 94.9C347.2 101 344.3 109.4 340.4 106.5C336.5 103.6 333.6 104.6 332.6 118.5C331.6 132.4 328.1 114.9 325.2 120.8C322.3 126.6 324.6 142.9 336.9 145.3Z" fill="#DAE6FF"/>
<path d="M288.6 103.3C291.9 107.4 295 111.6 298.1 115.8C301.2 120 304.2 124.3 307.1 128.7C310 133.1 312.8 137.5 315.3 142.2C316.5 144.5 317.7 146.9 318.8 149.3C319.8 151.7 320.8 154.2 321.1 156.9L320.2 156.7L325.1 148.8L330.2 141C333.7 135.9 337.2 130.7 341 125.8C344.8 120.8 348.7 116 352.9 111.4C355 109.1 357.1 106.8 359.4 104.7C361.6 102.5 363.9 100.4 366.4 98.6C361.6 102.6 357.4 107.1 353.3 111.8C349.2 116.5 345.4 121.4 341.7 126.4C338 131.4 334.5 136.5 331 141.6L325.9 149.4L321 157.3L320.3 158.5L320.1 157.1C319.8 154.6 318.9 152.1 317.9 149.7C316.9 147.3 315.7 145 314.5 142.7C312 138.1 309.3 133.6 306.5 129.2C303.7 124.8 300.7 120.5 297.8 116.2C294.8 111.7 291.7 107.5 288.6 103.3Z" fill="#D1DDF2"/>
<path d="M312.6 145.3C312.6 145.3 286.4 152.7 291.3 142.4C296.1 132.1 304.9 140.1 299.7 134.9C294.5 129.7 274.8 140.7 279 128.5C282.1 119.6 290.2 125 289.7 120.1C288.9 112.2 268.8 122.8 269.7 114C270.7 103.9 281.7 111.3 275.4 101.5C270.7 94.2 266.2 94.4 267.3 90.4C268.2 87.1 271.6 84.9 275 85.1C281.9 85.6 286.2 92.4 289.7 92.9C294.2 93.5 304 84.3 303.3 94.9C302.3 101 305.2 109.4 309.1 106.5C313 103.6 315.9 104.6 316.9 118.5C317.9 132.4 321.4 114.9 324.3 120.8C327.2 126.7 324.9 142.9 312.6 145.3Z" stroke="#D1DDF2" stroke-miterlimit="10"/>
<path d="M165.5 184.6C165.5 184.6 179.4 152.4 200.3 154.9C221.2 157.4 219.9 137.2 235.8 141.6C251.6 146 250.4 131.5 261.8 141C273.2 150.5 290.3 159 290.3 159L309.9 184.1L165.5 184.6Z" fill="#E1EAFF"/>
<path d="M80.1 184.6C80.1 184.6 61.1 152.5 93.4 127C93.4 127 74.6 80.7 114.1 65.2C132.6 58 89.7 3.49999 142.9 2.39999C198.4 1.29999 172.6 45.7 169.2 61C165.8 76.3 221.4 87.8 190.3 129C189 144.4 225.2 143.7 202 184.5C114 184.6 80.1 184.6 80.1 184.6Z" fill="#EBF4FF"/>
<path d="M142.6 33.3H138V183.5H142.6V33.3Z" fill="white"/>
<path d="M153.64 68.556L138.698 83.1714L141.915 86.4599L156.857 71.8446L153.64 68.556Z" fill="white"/>
<path d="M114.403 91.1212L110.748 93.9147L138.441 130.144L142.096 127.35L114.403 91.1212Z" fill="white"/>
<path d="M159.347 136.583L138.655 156.326L141.83 159.654L162.522 139.911L159.347 136.583Z" fill="white"/>
<path d="M5.00001 184.6C5.00001 184.6 -10.2 158.8 15.7 138.4C15.7 138.4 0.600008 101.2 32.3 88.8C47.1 83 12.7 39.2 55.5 38.4C100.1 37.5 79.3 73.2 76.6 85.5C73.9 97.8 118.5 107 93.5 140.1C92.4 152.5 121.5 151.9 102.9 184.6C33.3 186.6 5.00001 184.6 5.00001 184.6Z" fill="#E6EDFF"/>
<path d="M56.7 64H53V184.6H56.7V64Z" fill="white"/>
<path d="M65.6422 92.3124L53.6319 104.061L56.2193 106.706L68.2296 94.9576L65.6422 92.3124Z" fill="white"/>
<path d="M34.114 110.431L31.1744 112.678L53.4016 141.757L56.3412 139.51L34.114 110.431Z" fill="white"/>
<path d="M70.1636 146.996L53.5955 162.804L56.1496 165.481L72.7177 149.673L70.1636 146.996Z" fill="white"/>
<path d="M245.1 184C245.1 184 271.7 170.7 281.2 170.7C290.7 170.7 294 146 319.7 154.1C345.4 162.2 393.8 149.3 399.5 141.7C405.2 134.1 425.6 132.2 435.1 141.7C444.6 151.2 460.3 146.5 469.3 151.7C478.3 156.9 542 148.6 555.8 159.6C569.6 170.7 578.1 177.8 586.7 178.3C595.3 178.8 614.7 184 614.7 184H245.1Z" fill="#EBF4FF"/>
<path d="M474.6 184C474.6 184 386.2 114.9 417.8 86.7C449.4 58.5 474.6 184 474.6 184Z" fill="#E1EAFF"/>
<path d="M474.6 184C474.6 184 423.6 0.4 477.5 0.8C531.4 1.2 474.6 184 474.6 184Z" fill="#E1EAFF"/>
<path d="M474.6 184C474.6 184 505.3 36.6 537.8 54.3C570.2 72 474.6 184 474.6 184Z" fill="#E1EAFF"/>
<path d="M474.6 184C474.6 184 542.8 90.5 563.9 105.3C584.9 120 501.1 173.9 474.6 184Z" fill="#E1EAFF"/>
<path d="M474.6 184C480.2 178.1 486.1 172.6 492.1 167.1C498 161.6 504.1 156.3 510.2 151C516.4 145.8 522.5 140.5 528.9 135.5L538.4 128C541.7 125.6 544.9 123.1 548.2 120.8C545.4 123.8 542.5 126.5 539.6 129.4L530.7 137.7C524.8 143.2 518.7 148.5 512.6 153.8C506.4 159 500.3 164.3 493.9 169.3C487.6 174.3 481.2 179.3 474.6 184Z" fill="white"/>
<path d="M474.6 184C477.8 175.6 481.3 164.6 484.9 156.4C488.5 148.2 492.3 140.1 496.1 132.1C500 124.1 503.9 116 508.1 108.1L514.4 96.2C516.6 92.3 518.7 88.4 521 84.5C519.5 88.7 517.7 92.8 516 97L510.7 109.3C507.1 117.5 503.3 125.6 499.5 133.6C495.6 141.6 491.7 149.7 487.5 157.6C483.3 165.6 479.1 176.3 474.6 184Z" fill="white"/>
<path d="M474.6 52.8C475.4 63.1 475.7 73.4 476 83.7C476.3 94 476.4 104.3 476.4 114.6C476.4 124.9 476.3 135.2 476 145.5L475.5 160.9C475.2 166 475 178.9 474.6 184.1C474.2 179 474 166.1 473.7 160.9L473.2 145.5C472.9 135.2 472.8 124.9 472.8 114.6C472.8 104.3 472.9 94 473.2 83.7C473.5 73.4 473.8 63.1 474.6 52.8Z" fill="white"/>
<path d="M425 103.7C433.8 115 441.6 126.9 449.2 139C456.7 151.1 468.3 171.2 474.6 184C465.8 172.7 453.7 153 446.1 140.9C438.6 128.8 431.3 116.5 425 103.7Z" fill="white"/>
</svg>
