<svg width="335" height="467" viewBox="0 0 335 467" fill="none" xmlns="http://www.w3.org/2000/svg">
<path d="M275.3 388.1L158.4 466.7L0 433.4L210.1 372.4L275.3 388.1Z" fill="url(#paint0_linear)"/>
<path d="M220 352.1C220 352.1 220.8 351 221.7 351.5C222.6 352 229 364.1 229 364.1L229.6 367.5L226.4 375.5L223.1 382.4C223.1 382.4 211.7 371.3 212.3 366.9C213.5 358.1 220 352.1 220 352.1Z" fill="#2C4774"/>
<path d="M212.3 366.9C212.3 366.9 220.2 380.4 222.9 381.6C225.6 382.8 224.1 388.1 224.1 388.1C224.1 388.1 220.2 385.4 215 379.7C209.7 373.9 208.6 370.6 212.3 366.9Z" fill="#5B90B1"/>
<path d="M228.7 362.6C228.7 362.6 226.8 367.2 227 368.5C227.2 369.8 232.2 376.4 241.2 375.4C250.2 374.4 249.8 370 252.2 370.3C251.1 368.4 247.1 366 247.1 361.3C247.1 356.6 228.7 362.6 228.7 362.6Z" fill="url(#paint1_linear)"/>
<path d="M225.2 347.6L221.1 352.3L229 364.1L230.2 360.6L225.2 347.6Z" fill="url(#paint2_linear)"/>
<path d="M269.2 25.5C269.2 25.5 264.5 60 254 60.2C252.3 60.2 247.9 57 246.7 58.3C245.5 59.6 244.6 60.5 244.2 63.8C243.9 66.2 244.1 68.8 250.7 80C237.8 70.6 225.6 56.2 220.4 55.1C224 46.9 225.4 40.2 225.4 40.2C225.4 40.2 233.2 45.6 233.6 36.8C233.9 28 239.3 21.7 242.8 22.1C246.4 22.5 242.5 27.4 246.8 28.4C251.1 29.4 251 29.6 252.5 27.9C253.9 26.2 253.8 22.8 261.1 23.7C268.3 24.4 269.2 25.5 269.2 25.5Z" fill="url(#paint3_linear)"/>
<path d="M239.5 23.6C239.5 23.6 241.1 21.9 243.3 24.1C245.5 26.3 243.8 29.1 244.8 30.3C245.8 31.5 247.9 32.3 249 32.1C251.3 31.8 255.6 24.9 258.9 24.8C262.2 24.6 265.4 26 268.4 25.7C271.4 25.4 275.8 24.4 276.2 21C278 7.2 255.5 4.69999 249.1 1.79999C240.4 -2.10001 229.2 4.7 226.6 7C224 9.2 220.3 13.9 221.7 21.6C223.1 29.3 223.6 27.2 225.4 40.2C227.2 45.4 230.4 43.5 232.7 40.9C235.1 38.1 235.1 27 239.5 23.6Z" fill="url(#paint4_linear)"/>
<path d="M272.2 141.8C272.2 141.8 287.9 171.5 287.3 177.1C286.7 182.7 282.5 187.3 278.3 188.5C274.1 189.7 275.3 189.7 275.3 189.7L269.8 169.8L272.2 141.8Z" fill="url(#paint5_linear)"/>
<path d="M244.2 63.8C244.2 63.8 266.7 74.7 266.3 114.7C266.3 114.7 242.4 74.3 244.2 63.8Z" fill="url(#paint6_linear)"/>
<path d="M271.8 176.9C271.8 176.9 286.2 225.3 287.4 245.3C288.5 265.3 291 271.1 286.3 279.5C281.6 287.9 243.8 346.5 243.8 346.5L241 294.5C241 294.5 256.2 283.7 259 272.5C261.8 261.3 253.5 251 253.5 251L271.8 176.9Z" fill="url(#paint7_linear)"/>
<path d="M269.8 181.3C269.8 181.3 271.2 188.1 266.2 207.1C261.2 226.1 253 267.6 253 267.6C253 267.6 251.8 279.8 249.8 287.1C247.8 294.4 247.3 361.3 247.3 361.3C247.3 361.3 231.3 365.8 228.8 362.5C226.3 359.2 216.3 309 217.3 296C218.3 283 223.3 284 222.3 257.5C221.3 231 213.5 196.5 215.3 193.5C217.1 190.5 269.8 181.3 269.8 181.3Z" fill="url(#paint8_linear)"/>
<path d="M233.5 63.9C245.3 77.3 251 78.7 254.8 84.8C258.6 90.9 266.5 108.3 265.9 113.6C265.9 113.6 277.5 146.1 271.7 176.4C270.3 184 269.3 193.3 262.8 197C248.8 205 209.2 194.8 209.2 190.9C209.2 177.1 214.4 166.5 216.7 157.3C219 148.1 210.9 131.2 210.9 131.2C210.9 131.2 193.7 91.4 213.1 66.2C213.7 56.3 219.5 48 233.5 63.9Z" fill="url(#paint9_linear)"/>
<path d="M215.3 77.4C215.3 77.4 224.8 66.6 236.1 79.1C247.4 91.6 257.1 114.8 264.3 115.1C271.5 115.4 279.1 95.1 285 95.1C290.9 95.1 299 105.3 297.5 109.9C296 114.6 281.4 139.8 272.3 141.8C254 145.9 218.7 110.1 213.9 102.9C211.3 99.2 206.6 89.9 215.3 77.4Z" fill="url(#paint10_linear)"/>
<path d="M221.6 381.6C221.6 381.6 219.4 387.4 222.9 389.1C226.4 390.7 242.1 389.6 247.2 391.1C252.3 392.7 274.2 394 277.3 388.6C280.4 383.2 277.3 385.4 277.3 385.4C277.3 385.4 263.1 388.8 246.6 384.5C230.1 380.2 221.6 381.6 221.6 381.6Z" fill="#6295BD"/>
<path d="M227.5 367.7C226.9 367.3 226 367.5 225.6 368.2C224.1 371 221.2 378.3 221.5 381.7C221.9 386 232.7 386.8 237.7 386.7C242.6 386.6 250.4 388.5 253.6 388.9C253.6 388.9 271.5 389.9 275.3 388.1C279.1 386.3 278.6 386.3 278.6 386.3C278.6 386.3 280.3 383.9 276.8 382.5C273.5 381.2 257.2 376.1 253.9 370.9C253.6 370.5 253.2 370.2 252.7 370.1C247.2 369.2 244.5 376 239.5 374.6C235.6 373.6 229.9 369.4 227.5 367.7Z" fill="#2C4774"/>
<path d="M296.7 105L298.5 101.9C298.5 101.9 303.7 103.9 305.3 101.9C307.2 103.4 304.2 108.4 304.2 108.4C304.2 108.4 293.4 129.9 290.9 132.5C288.5 135.1 286.5 140.1 277.7 138.1C268.9 136.1 291.8 108.8 291.8 108.8L296.7 105Z" fill="url(#paint11_linear)"/>
<path d="M315.4 84.4L332.5 71.6C333.6 70.8 335.1 71.7 334.9 73C334.9 73.2 334.8 73.4 334.7 73.6C331.3 75.8 315.8 87.9 315.8 87.9L315.4 84.4Z" fill="#253C83"/>
<path d="M297.9 101.6L299.9 104C300 104.2 300.2 104.2 300.4 104.2C300.4 104.2 301.7 106.2 305.2 102C308.7 97.8 308.5 96.2 311.5 94.8C314.5 93.4 320.7 89.6 322.9 87.7C325.1 85.8 332.5 83.5 328.3 80.1C325.6 77.9 323.9 77.8 323 77.9C322.7 78 322.5 78.4 322.7 78.6C323 79 323.3 79.7 323 80.5C322.5 81.9 320.2 78.7 319 79.6C317.8 80.5 321 82 321.1 83C321.2 84 318.5 85.6 316 84.7C313.7 83.9 300.1 98.4 298 100.8C297.8 101.1 297.8 101.4 297.9 101.6Z" fill="url(#paint12_linear)"/>
<path d="M286.6 95.3C286.6 95.3 292.9 87.9 293.8 86.6C294.7 85.3 301.2 75.2 303.6 74.8C306 74.4 314.7 75.1 315.2 75.8C315.7 76.5 315.5 78 314.4 78.2C313.3 78.4 309.6 78.3 309.6 78.3C309.6 78.3 311.4 78.7 313.3 80.3C315.2 81.9 317.2 83.2 316.9 85.3C316.6 87.4 308.4 95.7 305.3 96.5C302.2 97.3 297.3 104.5 296.8 105C296.3 105.6 286.6 95.3 286.6 95.3Z" fill="url(#paint13_linear)"/>
<defs>
<linearGradient id="paint0_linear" x1="137.629" y1="466.747" x2="137.629" y2="372.367" gradientUnits="userSpaceOnUse">
<stop stop-color="white"/>
<stop offset="0.3096" stop-color="#FBFCFE"/>
<stop offset="0.5953" stop-color="#F0F4FB"/>
<stop offset="0.8709" stop-color="#DEE6F7"/>
<stop offset="1" stop-color="#D2DEF4"/>
</linearGradient>
<linearGradient id="paint1_linear" x1="238.342" y1="360.064" x2="240.511" y2="375.498" gradientUnits="userSpaceOnUse">
<stop stop-color="#A2B7E2"/>
<stop offset="0.0430022" stop-color="#A8BCE4"/>
<stop offset="0.2308" stop-color="#BECFEC"/>
<stop offset="0.4364" stop-color="#CEDCF2"/>
<stop offset="0.6713" stop-color="#D7E4F5"/>
<stop offset="1" stop-color="#DAE6F6"/>
</linearGradient>
<linearGradient id="paint2_linear" x1="221.092" y1="355.815" x2="230.217" y2="355.815" gradientUnits="userSpaceOnUse">
<stop stop-color="#DAE6F6"/>
<stop offset="1" stop-color="#A2B7E2"/>
</linearGradient>
<linearGradient id="paint3_linear" x1="220.384" y1="50.9939" x2="269.18" y2="50.9939" gradientUnits="userSpaceOnUse">
<stop stop-color="#A2B7E2"/>
<stop offset="0.0788533" stop-color="#B5C7E9"/>
<stop offset="0.183" stop-color="#C6D5EF"/>
<stop offset="0.3127" stop-color="#D1DFF3"/>
<stop offset="0.4947" stop-color="#D8E4F5"/>
<stop offset="1" stop-color="#DAE6F6"/>
</linearGradient>
<linearGradient id="paint4_linear" x1="254.106" y1="3.11389" x2="238.946" y2="47.1398" gradientUnits="userSpaceOnUse">
<stop offset="0.00132211" stop-color="#2057BC"/>
<stop offset="1" stop-color="#11337A"/>
</linearGradient>
<linearGradient id="paint5_linear" x1="269.842" y1="165.736" x2="287.36" y2="165.736" gradientUnits="userSpaceOnUse">
<stop stop-color="#2C74DD"/>
<stop offset="0.2538" stop-color="#3683E6"/>
<stop offset="1" stop-color="#50ACFF"/>
</linearGradient>
<linearGradient id="paint6_linear" x1="244.494" y1="63.6465" x2="270.443" y2="112.451" gradientUnits="userSpaceOnUse">
<stop stop-color="#2C74DD"/>
<stop offset="1" stop-color="#50ACFF"/>
</linearGradient>
<linearGradient id="paint7_linear" x1="289.013" y1="261.734" x2="240.967" y2="261.734" gradientUnits="userSpaceOnUse">
<stop stop-color="#AB71FF"/>
<stop offset="0.1678" stop-color="#A86CFF"/>
<stop offset="0.3767" stop-color="#9E5CFE"/>
<stop offset="0.6073" stop-color="#8E43FC"/>
<stop offset="0.8518" stop-color="#7820FA"/>
<stop offset="1" stop-color="#6807F8"/>
</linearGradient>
<linearGradient id="paint8_linear" x1="221.342" y1="191.049" x2="276.498" y2="351.233" gradientUnits="userSpaceOnUse">
<stop stop-color="#AB71FF"/>
<stop offset="0.1678" stop-color="#A86CFF"/>
<stop offset="0.3767" stop-color="#9E5CFE"/>
<stop offset="0.6073" stop-color="#8E43FC"/>
<stop offset="0.8518" stop-color="#7820FA"/>
<stop offset="1" stop-color="#6807F8"/>
</linearGradient>
<linearGradient id="paint9_linear" x1="195.569" y1="179.81" x2="268.707" y2="92.6469" gradientUnits="userSpaceOnUse">
<stop stop-color="#2C74DD"/>
<stop offset="0.1478" stop-color="#3582E5"/>
<stop offset="0.4585" stop-color="#4499F3"/>
<stop offset="0.7498" stop-color="#4DA7FC"/>
<stop offset="1" stop-color="#50ACFF"/>
</linearGradient>
<linearGradient id="paint10_linear" x1="244.648" y1="136.585" x2="258.483" y2="81.0943" gradientUnits="userSpaceOnUse">
<stop stop-color="#2C74DD"/>
<stop offset="0.3758" stop-color="#3E8FEE"/>
<stop offset="0.7518" stop-color="#4BA4FA"/>
<stop offset="1" stop-color="#50ACFF"/>
</linearGradient>
<linearGradient id="paint11_linear" x1="275.863" y1="137.047" x2="307.586" y2="104.196" gradientUnits="userSpaceOnUse">
<stop stop-color="#2C74DD"/>
<stop offset="0.0777494" stop-color="#3583E6"/>
<stop offset="0.2128" stop-color="#4195F1"/>
<stop offset="0.3727" stop-color="#4AA2F9"/>
<stop offset="0.5792" stop-color="#4FAAFE"/>
<stop offset="1" stop-color="#50ACFF"/>
</linearGradient>
<linearGradient id="paint12_linear" x1="297.808" y1="91.3145" x2="329.606" y2="91.3145" gradientUnits="userSpaceOnUse">
<stop stop-color="#A2B7E2"/>
<stop offset="0.2476" stop-color="#A7BBE4"/>
<stop offset="0.5459" stop-color="#B6C8E9"/>
<stop offset="0.8692" stop-color="#CEDCF2"/>
<stop offset="1" stop-color="#DAE6F6"/>
</linearGradient>
<linearGradient id="paint13_linear" x1="295.177" y1="104.39" x2="309.706" y2="73.2331" gradientUnits="userSpaceOnUse">
<stop stop-color="#A2B7E2"/>
<stop offset="0.0430022" stop-color="#A8BCE4"/>
<stop offset="0.2308" stop-color="#BECFEC"/>
<stop offset="0.4364" stop-color="#CEDCF2"/>
<stop offset="0.6713" stop-color="#D7E4F5"/>
<stop offset="1" stop-color="#DAE6F6"/>
</linearGradient>
</defs>
</svg>
