<svg width="405" height="549" viewBox="0 0 405 549" fill="none" xmlns="http://www.w3.org/2000/svg">
<path d="M245.4 466.9L158.4 548.7L0 515.4L222.5 466.9H245.4Z" fill="url(#paint0_linear)"/>
<path d="M234 0.600006C139.9 0.600006 63.3 77.2 63.3 171.3C63.3 288.1 216.1 459.6 222.6 466.9C228.7 473.7 239.4 473.7 245.5 466.9C252 459.7 404.8 288.2 404.8 171.3C404.7 77.2 328.1 0.600006 234 0.600006ZM234 248.6C191.4 248.6 156.7 213.9 156.7 171.3C156.7 128.7 191.3 94 234 94C276.7 94 311.3 128.7 311.3 171.3C311.3 213.9 276.6 248.6 234 248.6Z" fill="url(#paint1_linear)"/>
<defs>
<linearGradient id="paint0_linear" x1="122.693" y1="548.747" x2="122.693" y2="466.854" gradientUnits="userSpaceOnUse">
<stop stop-color="white"/>
<stop offset="0.3096" stop-color="#FBFCFE"/>
<stop offset="0.5953" stop-color="#F0F4FB"/>
<stop offset="0.8709" stop-color="#DEE6F7"/>
<stop offset="1" stop-color="#D2DEF4"/>
</linearGradient>
<linearGradient id="paint1_linear" x1="63.2273" y1="125.69" x2="364.468" y2="299.611" gradientUnits="userSpaceOnUse">
<stop stop-color="#AB71FF"/>
<stop offset="0.1822" stop-color="#A364FE"/>
<stop offset="0.5192" stop-color="#8D42FC"/>
<stop offset="0.971" stop-color="#6A0BF8"/>
<stop offset="1" stop-color="#6807F8"/>
</linearGradient>
</defs>
</svg>
